<mxfile host="65bd71144e">
    <diagram id="K9ah9TVlGkyaHXf_QZJq" name="Page-1">
        <mxGraphModel dx="1344" dy="396" grid="1" gridSize="10" guides="1" tooltips="1" connect="1" arrows="1" fold="1" page="1" pageScale="1" pageWidth="850" pageHeight="1100" math="0" shadow="0">
            <root>
                <mxCell id="0"/>
                <mxCell id="1" parent="0"/>
                <mxCell id="15" value="Gymnase" style="swimlane;childLayout=stackLayout;horizontal=1;startSize=50;horizontalStack=0;rounded=1;fontSize=14;fontStyle=0;strokeWidth=2;resizeParent=0;resizeLast=1;shadow=0;dashed=0;align=center;arcSize=4;whiteSpace=wrap;html=1;" parent="1" vertex="1">
                    <mxGeometry x="210" y="220" width="160" height="120" as="geometry"/>
                </mxCell>
                <mxCell id="16" value="&lt;div&gt;&lt;strong data-end=&quot;335&quot; data-start=&quot;321&quot;&gt;&lt;strong data-end=&quot;407&quot; data-start=&quot;400&quot;&gt;Nom&lt;/strong&gt;&lt;/strong&gt;&lt;/div&gt;&lt;div&gt;&lt;b&gt;Prenom&lt;/b&gt;&lt;/div&gt;&lt;div&gt;&lt;strong data-end=&quot;335&quot; data-start=&quot;321&quot;&gt;&lt;strong data-end=&quot;407&quot; data-start=&quot;400&quot;&gt;&lt;strong data-end=&quot;444&quot; data-start=&quot;433&quot;&gt;&lt;strong data-end=&quot;496&quot; data-start=&quot;483&quot;&gt;Téléphone&lt;/strong&gt;&lt;/strong&gt;&lt;/strong&gt;&lt;/strong&gt;&lt;/div&gt;" style="align=left;strokeColor=none;fillColor=none;spacingLeft=4;fontSize=12;verticalAlign=top;resizable=0;rotatable=0;part=1;html=1;" parent="15" vertex="1">
                    <mxGeometry y="50" width="160" height="70" as="geometry"/>
                </mxCell>
                <mxCell id="17" value="Membre" style="swimlane;childLayout=stackLayout;horizontal=1;startSize=50;horizontalStack=0;rounded=1;fontSize=14;fontStyle=0;strokeWidth=2;resizeParent=0;resizeLast=1;shadow=0;dashed=0;align=center;arcSize=4;whiteSpace=wrap;html=1;" parent="1" vertex="1">
                    <mxGeometry x="570" y="190" width="160" height="140" as="geometry"/>
                </mxCell>
                <mxCell id="18" value="&lt;div&gt;&lt;strong data-end=&quot;587&quot; data-start=&quot;574&quot;&gt;Nom&lt;/strong&gt;&lt;/div&gt;&lt;div&gt;&lt;strong data-end=&quot;587&quot; data-start=&quot;574&quot;&gt;Prénom&lt;/strong&gt;&lt;/div&gt;&lt;div&gt;&lt;strong data-end=&quot;587&quot; data-start=&quot;574&quot;&gt;Adresse&lt;/strong&gt;&lt;/div&gt;&lt;div&gt;&lt;strong data-end=&quot;587&quot; data-start=&quot;574&quot;&gt;Date_Naissance&lt;/strong&gt;&lt;/div&gt;&lt;div&gt;&lt;strong data-end=&quot;587&quot; data-start=&quot;574&quot;&gt;&lt;strong data-end=&quot;827&quot; data-start=&quot;818&quot;&gt;Genre&lt;/strong&gt;&lt;/strong&gt;&lt;/div&gt;" style="align=left;strokeColor=none;fillColor=none;spacingLeft=4;fontSize=12;verticalAlign=top;resizable=0;rotatable=0;part=1;html=1;" parent="17" vertex="1">
                    <mxGeometry y="50" width="160" height="90" as="geometry"/>
                </mxCell>
                <mxCell id="21" value="Entraineur" style="swimlane;childLayout=stackLayout;horizontal=1;startSize=50;horizontalStack=0;rounded=1;fontSize=14;fontStyle=0;strokeWidth=2;resizeParent=0;resizeLast=1;shadow=0;dashed=0;align=center;arcSize=4;whiteSpace=wrap;html=1;" parent="1" vertex="1">
                    <mxGeometry x="210" y="420" width="160" height="130" as="geometry"/>
                </mxCell>
                <mxCell id="22" value="&lt;div&gt;&lt;div&gt;&lt;strong data-end=&quot;1050&quot; data-start=&quot;1036&quot;&gt;Nom&lt;/strong&gt;&lt;/div&gt;&lt;div&gt;&lt;strong data-end=&quot;1050&quot; data-start=&quot;1036&quot;&gt;Prenom&lt;/strong&gt;&lt;/div&gt;&lt;div&gt;&lt;strong data-end=&quot;1050&quot; data-start=&quot;1036&quot;&gt;Age&lt;/strong&gt;&lt;/div&gt;&lt;/div&gt;&lt;div&gt;&lt;strong data-end=&quot;1050&quot; data-start=&quot;1036&quot;&gt;Specialité&lt;/strong&gt;&lt;/div&gt;" style="align=left;strokeColor=none;fillColor=none;spacingLeft=4;fontSize=12;verticalAlign=top;resizable=0;rotatable=0;part=1;html=1;" parent="21" vertex="1">
                    <mxGeometry y="50" width="160" height="80" as="geometry"/>
                </mxCell>
                <mxCell id="23" value="Seance" style="swimlane;childLayout=stackLayout;horizontal=1;startSize=50;horizontalStack=0;rounded=1;fontSize=14;fontStyle=0;strokeWidth=2;resizeParent=0;resizeLast=1;shadow=0;dashed=0;align=center;arcSize=4;whiteSpace=wrap;html=1;" parent="1" vertex="1">
                    <mxGeometry x="560" y="425" width="160" height="120" as="geometry"/>
                </mxCell>
                <mxCell id="24" value="&lt;strong data-end=&quot;1050&quot; data-start=&quot;1036&quot;&gt;Type_Sport&lt;/strong&gt;&lt;div&gt;&lt;strong data-end=&quot;1050&quot; data-start=&quot;1036&quot;&gt;&lt;strong data-end=&quot;1138&quot; data-start=&quot;1127&quot;&gt;Horaire&lt;/strong&gt;&lt;/strong&gt;&lt;/div&gt;&lt;div&gt;&lt;strong data-end=&quot;1050&quot; data-start=&quot;1036&quot;&gt;&lt;strong data-end=&quot;1138&quot; data-start=&quot;1127&quot;&gt;&lt;strong data-end=&quot;1191&quot; data-start=&quot;1176&quot;&gt;Max_Membres&lt;/strong&gt;&lt;/strong&gt;&lt;/strong&gt;&lt;/div&gt;&lt;div&gt;&lt;strong data-end=&quot;1050&quot; data-start=&quot;1036&quot;&gt;&lt;strong data-end=&quot;1138&quot; data-start=&quot;1127&quot;&gt;&lt;br&gt;&lt;/strong&gt;&lt;/strong&gt;&lt;/div&gt;" style="align=left;strokeColor=none;fillColor=none;spacingLeft=4;fontSize=12;verticalAlign=top;resizable=0;rotatable=0;part=1;html=1;" parent="23" vertex="1">
                    <mxGeometry y="50" width="160" height="70" as="geometry"/>
                </mxCell>
                <mxCell id="25" value="" style="line;strokeWidth=1;rotatable=0;dashed=0;labelPosition=right;align=left;verticalAlign=middle;spacingTop=0;spacingLeft=6;points=[];portConstraint=eastwest;" parent="23" vertex="1">
                    <mxGeometry y="120" width="160" as="geometry"/>
                </mxCell>
                <mxCell id="53" value="Adresse" style="swimlane;childLayout=stackLayout;horizontal=1;startSize=50;horizontalStack=0;rounded=1;fontSize=14;fontStyle=0;strokeWidth=2;resizeParent=0;resizeLast=1;shadow=0;dashed=0;align=center;arcSize=4;whiteSpace=wrap;html=1;" parent="1" vertex="1">
                    <mxGeometry x="-50" y="410" width="160" height="90" as="geometry"/>
                </mxCell>
                <mxCell id="54" value="City&lt;div&gt;adresse_ID&lt;/div&gt;" style="align=left;strokeColor=none;fillColor=none;spacingLeft=4;fontSize=12;verticalAlign=top;resizable=0;rotatable=0;part=1;html=1;" parent="53" vertex="1">
                    <mxGeometry y="50" width="160" height="40" as="geometry"/>
                </mxCell>
                <mxCell id="60" value="travaille" style="ellipse;whiteSpace=wrap;html=1;align=center;" parent="1" vertex="1">
                    <mxGeometry x="325" y="360" width="100" height="40" as="geometry"/>
                </mxCell>
                <mxCell id="67" value="" style="edgeStyle=orthogonalEdgeStyle;fontSize=12;html=1;endArrow=ERmandOne;entryX=0.356;entryY=-0.044;entryDx=0;entryDy=0;entryPerimeter=0;" parent="1" source="68" target="53" edge="1">
                    <mxGeometry width="100" height="100" relative="1" as="geometry">
                        <mxPoint x="-80" y="250" as="sourcePoint"/>
                        <mxPoint x="10" y="400" as="targetPoint"/>
                        <Array as="points">
                            <mxPoint x="30" y="300"/>
                            <mxPoint x="20" y="300"/>
                            <mxPoint x="20" y="400"/>
                            <mxPoint x="7" y="400"/>
                        </Array>
                    </mxGeometry>
                </mxCell>
                <mxCell id="68" value="ain benian" style="ellipse;whiteSpace=wrap;html=1;align=center;" parent="1" vertex="1">
                    <mxGeometry x="-20" y="200" width="100" height="40" as="geometry"/>
                </mxCell>
                <mxCell id="70" value="" style="edgeStyle=entityRelationEdgeStyle;fontSize=12;html=1;endArrow=ERone;endFill=1;entryX=-0.024;entryY=0.193;entryDx=0;entryDy=0;entryPerimeter=0;exitX=1;exitY=0;exitDx=0;exitDy=0;" parent="1" source="68" target="17" edge="1">
                    <mxGeometry width="100" height="100" relative="1" as="geometry">
                        <mxPoint x="80" y="130" as="sourcePoint"/>
                        <mxPoint x="140" y="310" as="targetPoint"/>
                    </mxGeometry>
                </mxCell>
                <mxCell id="72" value="register" style="ellipse;whiteSpace=wrap;html=1;align=center;" parent="1" vertex="1">
                    <mxGeometry x="730" y="380" width="100" height="40" as="geometry"/>
                </mxCell>
                <mxCell id="73" value="" style="edgeStyle=entityRelationEdgeStyle;fontSize=12;html=1;endArrow=ERmandOne;startArrow=ERmandOne;entryX=1;entryY=0;entryDx=0;entryDy=0;exitX=0.5;exitY=0;exitDx=0;exitDy=0;" parent="1" source="72" target="18" edge="1">
                    <mxGeometry width="100" height="100" relative="1" as="geometry">
                        <mxPoint x="560" y="410" as="sourcePoint"/>
                        <mxPoint x="660" y="310" as="targetPoint"/>
                    </mxGeometry>
                </mxCell>
                <mxCell id="75" value="" style="edgeStyle=entityRelationEdgeStyle;fontSize=12;html=1;endArrow=ERoneToMany;startArrow=ERmandOne;entryX=1;entryY=0;entryDx=0;entryDy=0;exitX=0;exitY=0.5;exitDx=0;exitDy=0;" parent="1" source="72" target="16" edge="1">
                    <mxGeometry width="100" height="100" relative="1" as="geometry">
                        <mxPoint x="560" y="410" as="sourcePoint"/>
                        <mxPoint x="660" y="310" as="targetPoint"/>
                        <Array as="points">
                            <mxPoint x="520" y="380"/>
                        </Array>
                    </mxGeometry>
                </mxCell>
                <mxCell id="77" value="" style="edgeStyle=entityRelationEdgeStyle;fontSize=12;html=1;endArrow=ERoneToMany;startArrow=ERoneToMany;exitX=0.998;exitY=0.347;exitDx=0;exitDy=0;exitPerimeter=0;entryX=0;entryY=0.5;entryDx=0;entryDy=0;" parent="1" source="22" target="24" edge="1">
                    <mxGeometry width="100" height="100" relative="1" as="geometry">
                        <mxPoint x="560" y="410" as="sourcePoint"/>
                        <mxPoint x="660" y="310" as="targetPoint"/>
                    </mxGeometry>
                </mxCell>
                <mxCell id="78" value="coacing" style="ellipse;whiteSpace=wrap;html=1;align=center;" parent="1" vertex="1">
                    <mxGeometry x="425" y="490" width="100" height="40" as="geometry"/>
                </mxCell>
                <mxCell id="80" value="" style="edgeStyle=entityRelationEdgeStyle;fontSize=12;html=1;endArrow=ERoneToMany;startArrow=ERmandOne;entryX=1.005;entryY=0.401;entryDx=0;entryDy=0;entryPerimeter=0;exitX=0.5;exitY=1;exitDx=0;exitDy=0;" parent="1" source="72" target="24" edge="1">
                    <mxGeometry width="100" height="100" relative="1" as="geometry">
                        <mxPoint x="430" y="490" as="sourcePoint"/>
                        <mxPoint x="530" y="390" as="targetPoint"/>
                    </mxGeometry>
                </mxCell>
                <mxCell id="81" value="" style="edgeStyle=entityRelationEdgeStyle;fontSize=12;html=1;endArrow=ERmandOne;endFill=0;entryX=0;entryY=0.25;entryDx=0;entryDy=0;startArrow=ERmandOne;startFill=0;" parent="1" source="54" target="15" edge="1">
                    <mxGeometry width="100" height="100" relative="1" as="geometry">
                        <mxPoint x="115.5" y="281.5999999999999" as="sourcePoint"/>
                        <mxPoint x="110" y="270" as="targetPoint"/>
                    </mxGeometry>
                </mxCell>
                <mxCell id="85" value="has address" style="edgeLabel;html=1;align=center;verticalAlign=middle;resizable=0;points=[];" vertex="1" connectable="0" parent="81">
                    <mxGeometry x="0.3495" y="3" relative="1" as="geometry">
                        <mxPoint as="offset"/>
                    </mxGeometry>
                </mxCell>
                <mxCell id="83" value="" style="edgeStyle=entityRelationEdgeStyle;fontSize=12;html=1;endArrow=ERone;endFill=1;entryX=0.446;entryY=-0.02;entryDx=0;entryDy=0;entryPerimeter=0;exitX=0.5;exitY=1;exitDx=0;exitDy=0;" parent="1" source="60" target="21" edge="1">
                    <mxGeometry width="100" height="100" relative="1" as="geometry">
                        <mxPoint x="150" y="370" as="sourcePoint"/>
                        <mxPoint x="250" y="270" as="targetPoint"/>
                    </mxGeometry>
                </mxCell>
                <mxCell id="84" value="" style="edgeStyle=entityRelationEdgeStyle;fontSize=12;html=1;endArrow=ERmany;entryX=0.75;entryY=1;entryDx=0;entryDy=0;exitX=0;exitY=0;exitDx=0;exitDy=0;" parent="1" source="60" target="16" edge="1">
                    <mxGeometry width="100" height="100" relative="1" as="geometry">
                        <mxPoint x="420" y="360" as="sourcePoint"/>
                        <mxPoint x="250" y="270" as="targetPoint"/>
                    </mxGeometry>
                </mxCell>
            </root>
        </mxGraphModel>
    </diagram>
</mxfile>